<svg width="20" height="20" viewBox="0 0 35 35" fill="none" xmlns="http://www.w3.org/2000/svg">
<path fill-rule="evenodd" clip-rule="evenodd" d="M27.7083 17.5C27.7083 18.8406 27.4442 20.168 26.9312 21.4066C26.4182 22.6451 25.6663 23.7705 24.7183 24.7184C23.7704 25.6663 22.6451 26.4183 21.4065 26.9313C20.168 27.4443 18.8405 27.7084 17.5 27.7084C16.1594 27.7084 14.8319 27.4443 13.5934 26.9313C12.3549 26.4183 11.2295 25.6663 10.2816 24.7184C9.33365 23.7705 8.58171 22.6451 8.06869 21.4066C7.55567 20.168 7.29163 18.8406 7.29163 17.5C7.29163 14.7926 8.36714 12.1961 10.2816 10.2816C12.196 8.3672 14.7925 7.29169 17.5 7.29169C20.2074 7.29169 22.8039 8.3672 24.7183 10.2816C26.6328 12.1961 27.7083 14.7926 27.7083 17.5ZM24.7916 17.5C24.7916 19.4339 24.0234 21.2886 22.6559 22.656C21.2885 24.0235 19.4338 24.7917 17.5 24.7917C15.5661 24.7917 13.7114 24.0235 12.344 22.656C10.9765 21.2886 10.2083 19.4339 10.2083 17.5C10.2083 15.5661 10.9765 13.7115 12.344 12.344C13.7114 10.9766 15.5661 10.2084 17.5 10.2084C19.4338 10.2084 21.2885 10.9766 22.6559 12.344C24.0234 13.7115 24.7916 15.5661 24.7916 17.5Z" fill="#17344D"/>
<path fill-rule="evenodd" clip-rule="evenodd" d="M32.0833 17.5C32.0833 25.5544 25.5543 32.0834 17.5 32.0834C9.44558 32.0834 2.91663 25.5544 2.91663 17.5C2.91663 9.44565 9.44558 2.91669 17.5 2.91669C25.5543 2.91669 32.0833 9.44565 32.0833 17.5ZM29.1666 17.5C29.1666 20.5942 27.9375 23.5617 25.7495 25.7496C23.5616 27.9375 20.5942 29.1667 17.5 29.1667C14.4058 29.1667 11.4383 27.9375 9.25038 25.7496C7.06246 23.5617 5.83329 20.5942 5.83329 17.5C5.83329 14.4058 7.06246 11.4384 9.25038 9.25044C11.4383 7.06252 14.4058 5.83335 17.5 5.83335C20.5942 5.83335 23.5616 7.06252 25.7495 9.25044C27.9375 11.4384 29.1666 14.4058 29.1666 17.5Z" fill="#17344D"/>
</svg>
