<svg width="20" height="20" viewBox="0 0 35 35" fill="none" xmlns="http://www.w3.org/2000/svg">
<path fill-rule="evenodd" clip-rule="evenodd" d="M7.03642 16.0417H11.9656C12.142 16.0417 12.4323 16.0417 12.6977 16.065C13.0258 16.0942 13.5858 16.1759 14.1779 16.5069C14.7647 16.8355 15.2493 17.32 15.5779 17.9069C15.9075 18.4975 15.9891 19.0575 16.0183 19.3856C16.0431 19.6525 16.0416 19.9413 16.0416 20.1177V28.0073C16.0416 28.1838 16.0416 28.474 16.0183 28.7394C15.9891 29.0675 15.9089 29.6275 15.5764 30.2196C15.2478 30.8065 14.7633 31.291 14.1764 31.6196C13.7206 31.8702 13.2164 32.0204 12.6977 32.06C12.4308 32.0834 12.142 32.0834 11.9656 32.0834H6.99267C6.81767 32.0834 6.526 32.0834 6.26058 32.06C5.74178 32.0199 5.23757 31.8693 4.78183 31.6181C4.19496 31.2896 3.71043 30.805 3.38183 30.2181C3.1307 29.7624 2.98004 29.2582 2.93996 28.7394C2.91663 28.4725 2.91663 28.1838 2.91663 28.0073V20.1177C2.91663 19.9427 2.91663 19.6511 2.93996 19.3856C2.96913 19.0575 3.05079 18.4975 3.38183 17.9069C3.71043 17.32 4.19496 16.8355 4.78183 16.5069C5.23757 16.2558 5.74178 16.1051 6.26058 16.065C6.52746 16.0417 6.81621 16.0417 6.99267 16.0417H7.03642ZM5.92663 19.3317C5.83329 19.4979 5.83329 19.7167 5.83329 20.1629V27.965C5.83329 28.4069 5.83329 28.6286 5.92663 28.7934C5.99234 28.9107 6.08925 29.0076 6.20663 29.0734C6.37288 29.1667 6.59308 29.1667 7.03642 29.1667H11.9218C12.3652 29.1667 12.5868 29.1667 12.7531 29.0734C12.8699 29.0074 12.9663 28.9105 13.0316 28.7934C13.125 28.6286 13.125 28.4084 13.125 27.9636V20.1615C13.125 19.7181 13.125 19.4979 13.0316 19.3302C12.9657 19.2134 12.8688 19.117 12.7516 19.0517C12.5868 18.9584 12.3666 18.9584 11.9218 18.9584H7.03642C6.59308 18.9584 6.37288 18.9584 6.20517 19.0517C6.08833 19.1176 5.99195 19.2145 5.92663 19.3317ZM7.03642 2.91669H11.9656C12.142 2.91669 12.4323 2.91669 12.6977 2.94002C13.0258 2.96919 13.5858 3.05085 14.1779 3.3819C14.7647 3.71049 15.2493 4.19502 15.5779 4.7819C15.9075 5.37252 15.9891 5.93252 16.0183 6.26065C16.0431 6.52752 16.0416 6.81627 16.0416 6.99273V10.5073C16.0416 10.6838 16.0416 10.974 16.0183 11.2394C15.9891 11.5675 15.9089 12.1275 15.5764 12.7196C15.2478 13.3065 14.7633 13.791 14.1764 14.1196C13.7206 14.3702 13.2164 14.5204 12.6977 14.56C12.4308 14.5848 12.142 14.5834 11.9656 14.5834H6.99267C6.81767 14.5834 6.526 14.5834 6.26058 14.56C5.74178 14.5199 5.23757 14.3693 4.78183 14.1181C4.19496 13.7896 3.71043 13.305 3.38183 12.7181C3.1307 12.2624 2.98004 11.7582 2.93996 11.2394C2.91663 10.9725 2.91663 10.6838 2.91663 10.5073V6.99273C2.91663 6.81773 2.91663 6.52606 2.93996 6.26065C2.96913 5.93252 3.05079 5.37252 3.38183 4.7819C3.71043 4.19502 4.19496 3.71049 4.78183 3.3819C5.23757 3.13076 5.74178 2.9801 6.26058 2.94002C6.52746 2.91669 6.81621 2.91669 6.99267 2.91669H7.03642ZM5.92663 6.20669C5.83329 6.37294 5.83329 6.59169 5.83329 7.03648V10.4636C5.83329 10.9069 5.83329 11.1286 5.92663 11.2948C5.99256 11.4116 6.08945 11.508 6.20663 11.5734C6.37288 11.6667 6.59163 11.6667 7.03642 11.6667H11.9218C12.3652 11.6667 12.5868 11.6667 12.7531 11.5734C12.8699 11.5074 12.9663 11.4105 13.0316 11.2934C13.125 11.1286 13.125 10.9084 13.125 10.4636V7.03648C13.125 6.59315 13.125 6.37294 13.0316 6.20523C12.9657 6.08839 12.8688 5.99201 12.7516 5.92669C12.5868 5.83335 12.3666 5.83335 11.9218 5.83335H7.03642C6.59308 5.83335 6.37288 5.83335 6.20517 5.92669C6.08833 5.99262 5.99195 6.08951 5.92663 6.20669ZM23.0781 18.9584H28.0073C28.1837 18.9584 28.4739 18.9584 28.7393 18.935C29.0675 18.9059 29.6275 18.8256 30.2195 18.4931C30.8064 18.1646 31.2909 17.68 31.6195 17.0931C31.9506 16.5025 32.0308 15.9425 32.06 15.6144C32.0833 15.3475 32.0833 15.0588 32.0833 14.8823V6.99273C32.0833 6.81773 32.0833 6.52606 32.06 6.26065C32.0199 5.74184 31.8692 5.23763 31.6181 4.7819C31.2895 4.19502 30.805 3.71049 30.2181 3.3819C29.7624 3.13076 29.2581 2.9801 28.7393 2.94002C28.4725 2.91669 28.1837 2.91669 28.0073 2.91669H23.0343C22.8593 2.91669 22.5677 2.91669 22.3023 2.94002C21.9741 2.96919 21.4141 3.05085 20.8235 3.3819C20.2366 3.71049 19.7521 4.19502 19.4235 4.7819C19.1724 5.23763 19.0217 5.74184 18.9816 6.26065C18.9583 6.52752 18.9583 6.81627 18.9583 6.99273V14.8823C18.9583 15.0588 18.9583 15.349 18.9816 15.6144C19.0108 15.9425 19.0925 16.5025 19.4235 17.0946C19.7521 17.6815 20.2366 18.166 20.8235 18.4946C21.4141 18.8242 21.9741 18.9059 22.3023 18.935C22.5691 18.9598 22.8579 18.9584 23.0343 18.9584H23.0781ZM21.9683 15.6684C21.875 15.5021 21.875 15.2834 21.875 14.8386V7.03648C21.875 6.59315 21.875 6.37294 21.9683 6.20523C22.0342 6.08839 22.1311 5.99201 22.2483 5.92669C22.4145 5.83335 22.6333 5.83335 23.0795 5.83335H27.965C28.4068 5.83335 28.6285 5.83335 28.7933 5.92669C28.9107 5.99241 29.0076 6.08931 29.0733 6.20669C29.1666 6.37294 29.1666 6.59315 29.1666 7.03648V14.8386C29.1666 15.2819 29.1666 15.5021 29.0733 15.6698C29.0074 15.7866 28.9105 15.883 28.7933 15.9484C28.6285 16.0417 28.4068 16.0417 27.9635 16.0417H23.0781C22.6348 16.0417 22.4145 16.0417 22.2468 15.9484C22.13 15.8824 22.0336 15.7855 21.9683 15.6684ZM23.0781 32.0834H28.0073C28.1837 32.0834 28.4739 32.0834 28.7393 32.06C29.0675 32.0309 29.6275 31.9492 30.2195 31.6181C30.8064 31.2896 31.2909 30.805 31.6195 30.2181C31.9506 29.6275 32.0308 29.0675 32.06 28.7394C32.0833 28.4725 32.0833 28.1838 32.0833 28.0073V24.4927C32.0833 24.3177 32.0833 24.0261 32.06 23.7606C32.0199 23.2418 31.8692 22.7376 31.6181 22.2819C31.2895 21.695 30.805 21.2105 30.2181 20.8819C29.7624 20.6308 29.2581 20.4801 28.7393 20.44C28.4725 20.4167 28.1837 20.4167 28.0073 20.4167H23.0343C22.8593 20.4167 22.5677 20.4167 22.3023 20.44C21.9741 20.4692 21.4141 20.5509 20.8235 20.8819C20.2366 21.2105 19.7521 21.695 19.4235 22.2819C19.1724 22.7376 19.0217 23.2418 18.9816 23.7606C18.9583 24.0275 18.9583 24.3163 18.9583 24.4927V28.0073C18.9583 28.1838 18.9583 28.474 18.9816 28.7394C19.0108 29.0675 19.0925 29.6275 19.4235 30.2196C19.7521 30.8065 20.2366 31.291 20.8235 31.6196C21.4141 31.9506 21.9741 32.0309 22.3023 32.06C22.5691 32.0834 22.8579 32.0834 23.0343 32.0834H23.0781ZM21.9683 28.7934C21.875 28.6286 21.875 28.4084 21.875 27.9636V24.5365C21.875 24.0931 21.875 23.8729 21.9683 23.7052C22.0342 23.5884 22.1311 23.492 22.2483 23.4267C22.4145 23.3334 22.6348 23.3334 23.0795 23.3334H27.965C28.4068 23.3334 28.6285 23.3334 28.7933 23.4267C28.91 23.4923 29.0077 23.5886 29.0733 23.7067C29.1666 23.8729 29.1666 24.0931 29.1666 24.5379V27.965C29.1666 28.4069 29.1666 28.6286 29.0733 28.7934C29.0076 28.9107 28.9107 29.0076 28.7933 29.0734C28.6285 29.1667 28.4068 29.1667 27.9635 29.1667H23.0781C22.6348 29.1667 22.4145 29.1667 22.2468 29.0734C22.13 29.0074 22.0336 28.9105 21.9683 28.7934Z" fill="#17344D"/>
</svg>
