<svg width="20" height="20" viewBox="0 0 35 35" fill="none" xmlns="http://www.w3.org/2000/svg">
<path d="M7.29167 7.29165H10.2083V11.6666H24.7917V7.29165H27.7083V14.5833H30.625V7.29165C30.625 5.68748 29.3125 4.37498 27.7083 4.37498H21.6125C21 2.68331 19.3958 1.45831 17.5 1.45831C15.6042 1.45831 14 2.68331 13.3875 4.37498H7.29167C5.6875 4.37498 4.375 5.68748 4.375 7.29165V27.7083C4.375 29.3125 5.6875 30.625 7.29167 30.625H16.0417V27.7083H7.29167V7.29165ZM17.5 4.37498C18.3021 4.37498 18.9583 5.03123 18.9583 5.83331C18.9583 6.6354 18.3021 7.29165 17.5 7.29165C16.6979 7.29165 16.0417 6.6354 16.0417 5.83331C16.0417 5.03123 16.6979 4.37498 17.5 4.37498Z" fill="#17344D"/>
<path d="M30.625 16.7708L22.6187 24.7916L18.2291 20.4166L16.0416 22.6041L22.6187 29.1666L32.8125 18.9583L30.625 16.7708Z" fill="#17344D"/>
</svg>
