<svg width="20" height="20" viewBox="0 0 35 35" fill="none" xmlns="http://www.w3.org/2000/svg">
<path d="M11.6666 16.0416C11.6666 17.0086 12.0507 17.9359 12.7345 18.6196C13.4182 19.3034 14.3455 19.6875 15.3125 19.6875C16.2794 19.6875 17.2067 19.3034 17.8905 18.6196C18.5742 17.9359 18.9583 17.0086 18.9583 16.0416C18.9583 15.0747 18.5742 14.1474 17.8905 13.4637C17.2067 12.7799 16.2794 12.3958 15.3125 12.3958C14.3455 12.3958 13.4182 12.7799 12.7345 13.4637C12.0507 14.1474 11.6666 15.0747 11.6666 16.0416Z" stroke="#17344D" stroke-width="2.625"/>
<path d="M2.91663 24.7917V7.29166H27.7083V24.7917H2.91663Z" stroke="#17344D" stroke-width="2.625"/>
<path d="M7.29163 29.1667H32.0833V11.6667" stroke="#17344D" stroke-width="2.625"/>
</svg>
