<svg width="20" height="20" viewBox="0 0 35 35" fill="none" xmlns="http://www.w3.org/2000/svg">
<path d="M4.375 7.65624C4.08492 7.65624 3.80672 7.77147 3.6016 7.97659C3.39648 8.18171 3.28125 8.4599 3.28125 8.74999C3.28125 9.04007 3.39648 9.31827 3.6016 9.52338C3.80672 9.7285 4.08492 9.84374 4.375 9.84374H6.80312L9.67312 21.3281C9.91703 22.3015 10.7888 22.9687 11.7917 22.9687H25.4308C26.4184 22.9687 27.2573 22.3125 27.5166 21.3609L30.3516 10.9375H28.0613L25.4297 20.7812H11.7906L8.92172 9.29686C8.80321 8.8257 8.53002 8.40795 8.1459 8.11048C7.76178 7.81302 7.28895 7.65307 6.80312 7.65624H4.375ZM24.0625 22.9687C22.2633 22.9687 20.7812 24.4508 20.7812 26.25C20.7812 28.0492 22.2633 29.5312 24.0625 29.5312C25.8617 29.5312 27.3438 28.0492 27.3438 26.25C27.3438 24.4508 25.8617 22.9687 24.0625 22.9687ZM14.2188 22.9687C12.4195 22.9687 10.9375 24.4508 10.9375 26.25C10.9375 28.0492 12.4195 29.5312 14.2188 29.5312C16.018 29.5312 17.5 28.0492 17.5 26.25C17.5 24.4508 16.018 22.9687 14.2188 22.9687ZM17.5 7.65624V13.125H14.2188L18.5938 17.5L22.9688 13.125H19.6875V7.65624H17.5ZM14.2188 25.1562C14.8356 25.1562 15.3125 25.6331 15.3125 26.25C15.3125 26.8669 14.8356 27.3437 14.2188 27.3437C13.6019 27.3437 13.125 26.8669 13.125 26.25C13.125 25.6331 13.6019 25.1562 14.2188 25.1562ZM24.0625 25.1562C24.6794 25.1562 25.1562 25.6331 25.1562 26.25C25.1562 26.8669 24.6794 27.3437 24.0625 27.3437C23.4456 27.3437 22.9688 26.8669 22.9688 26.25C22.9688 25.6331 23.4456 25.1562 24.0625 25.1562Z" fill="#17344D"/>
</svg>
