<svg width="25" height="25" viewBox="0 0 46 46" fill="none" xmlns="http://www.w3.org/2000/svg">
<rect width="46" height="46" rx="23" fill="#7D99A9" fill-opacity="0.5"/>
<path d="M30 31.75C30.2652 31.75 30.5196 31.6446 30.7071 31.4571C30.8946 31.2696 31 31.0152 31 30.75V29.504C31.004 26.698 27.026 24.5 23 24.5C18.974 24.5 15 26.698 15 29.504V30.75C15 31.0152 15.1054 31.2696 15.2929 31.4571C15.4804 31.6446 15.7348 31.75 16 31.75H30ZM26.604 17.854C26.604 18.3273 26.5108 18.7959 26.3297 19.2332C26.1485 19.6704 25.8831 20.0678 25.5484 20.4024C25.2138 20.7371 24.8164 21.0025 24.3792 21.1837C23.9419 21.3648 23.4733 21.458 23 21.458C22.5267 21.458 22.0581 21.3648 21.6208 21.1837C21.1836 21.0025 20.7862 20.7371 20.4516 20.4024C20.1169 20.0678 19.8515 19.6704 19.6703 19.2332C19.4892 18.7959 19.396 18.3273 19.396 17.854C19.396 16.8982 19.7757 15.9815 20.4516 15.3056C21.1275 14.6297 22.0442 14.25 23 14.25C23.9558 14.25 24.8725 14.6297 25.5484 15.3056C26.2243 15.9815 26.604 16.8982 26.604 17.854Z" stroke="#17344D" stroke-width="1.5" stroke-linecap="round" stroke-linejoin="round"/>
</svg>
