<svg width="20" height="20" viewBox="0 0 35 35" fill="none" xmlns="http://www.w3.org/2000/svg">
<path d="M32.8125 25.5741L30.625 24.4803V21.875C30.6223 20.3256 30.072 18.827 29.0713 17.6441C28.0705 16.4612 26.6838 15.6702 25.1562 15.4109V13.125H22.9688V15.4109C21.4412 15.6702 20.0545 16.4612 19.0537 17.6441C18.053 18.827 17.5027 20.3256 17.5 21.875V24.4803L15.3125 25.5741V30.625H21.875V32.8125H26.25V30.625H32.8125V25.5741ZM30.625 28.4375H17.5V26.9259L19.6875 25.8322V21.875C19.6875 20.7147 20.1484 19.6019 20.9689 18.7814C21.7894 17.9609 22.9022 17.5 24.0625 17.5C25.2228 17.5 26.3356 17.9609 27.1561 18.7814C27.9766 19.6019 28.4375 20.7147 28.4375 21.875V25.8322L30.625 26.9259V28.4375Z" fill="#17344D"/>
<path d="M30.625 6.5625C30.625 5.98234 30.3945 5.42594 29.9843 5.0157C29.5741 4.60547 29.0177 4.375 28.4375 4.375H24.0625V2.1875H21.875V4.375H13.125V2.1875H10.9375V4.375H6.5625C5.98234 4.375 5.42594 4.60547 5.0157 5.0157C4.60547 5.42594 4.375 5.98234 4.375 6.5625V28.4375C4.375 29.0177 4.60547 29.5741 5.0157 29.9843C5.42594 30.3945 5.98234 30.625 6.5625 30.625H10.9375V28.4375H6.5625V6.5625H10.9375V8.75H13.125V6.5625H21.875V8.75H24.0625V6.5625H28.4375V13.125H30.625V6.5625Z" fill="#17344D"/>
</svg>
