<svg width="27" height="27" viewBox="0 0 27 27" fill="none" xmlns="http://www.w3.org/2000/svg">
<path d="M3.58267 5.37333L6.4 22.3907C6.52887 23.1697 6.93012 23.8777 7.53227 24.3885C8.13442 24.8994 8.89836 25.1798 9.688 25.18H14.152M23.0827 5.37333L20.2667 22.3907C20.1378 23.1697 19.7365 23.8777 19.1344 24.3885C18.5322 24.8994 17.7683 25.1798 16.9787 25.18H12.5147M10.696 11.9107V18.6427M15.9707 11.9107V18.6427M1 5.37333H25.6667M17.036 5.37333V3C17.036 2.46957 16.8253 1.96086 16.4502 1.58579C16.0751 1.21071 15.5664 1 15.036 1H11.6307C11.1002 1 10.5915 1.21071 10.2165 1.58579C9.84138 1.96086 9.63067 2.46957 9.63067 3V5.37333H17.036Z" stroke="#FF0101" stroke-width="2" stroke-linecap="round" stroke-linejoin="round"/>
</svg>
