<svg width="18" height="11" viewBox="0 0 18 11" fill="none" xmlns="http://www.w3.org/2000/svg">
<path fill-rule="evenodd" clip-rule="evenodd" d="M9.83505 9.83505C9.58501 10.085 9.24594 10.2254 8.89238 10.2254C8.53883 10.2254 8.19975 10.085 7.94972 9.83505L0.407051 2.29238C0.279704 2.16939 0.178128 2.02226 0.108249 1.85959C0.0383705 1.69692 0.00158876 1.52196 5.03418e-05 1.34492C-0.00148808 1.16788 0.0322479 0.992308 0.0992891 0.828446C0.16633 0.664584 0.265334 0.515714 0.390525 0.390524C0.515715 0.265334 0.664584 0.16633 0.828446 0.0992884C0.992307 0.0322472 1.16788 -0.00148808 1.34492 5.03427e-05C1.52196 0.00158876 1.69692 0.0383705 1.85959 0.108249C2.02226 0.178128 2.16939 0.279704 2.29238 0.407051L8.89238 7.00705L15.4924 0.407051C15.7439 0.164173 16.0807 0.0297807 16.4303 0.0328186C16.7798 0.0358565 17.1143 0.176081 17.3615 0.423292C17.6087 0.670503 17.7489 1.00492 17.752 1.35452C17.755 1.70411 17.6206 2.04092 17.3777 2.29238L9.83505 9.83505Z" fill="#275B22"/>
</svg>
