<svg width="28" height="28" viewBox="0 0 28 28" fill="none" xmlns="http://www.w3.org/2000/svg">
<path d="M13.3334 2.66177H4.00004C3.2928 2.66177 2.61452 2.94273 2.11442 3.44282C1.61433 3.94292 1.33337 4.6212 1.33337 5.32844V23.9951C1.33337 24.7024 1.61433 25.3806 2.11442 25.8807C2.61452 26.3808 3.2928 26.6618 4.00004 26.6618H22.6667C23.374 26.6618 24.0522 26.3808 24.5523 25.8807C25.0524 25.3806 25.3334 24.7024 25.3334 23.9951V14.6618" stroke="#17344D" stroke-width="2.66667" stroke-linecap="round" stroke-linejoin="round"/>
<path d="M21.8334 2.16177C22.3639 1.63134 23.0833 1.33334 23.8334 1.33334C24.5836 1.33334 25.303 1.63134 25.8334 2.16177C26.3639 2.6922 26.6618 3.41163 26.6618 4.16177C26.6618 4.91192 26.3639 5.63134 25.8334 6.16177L13.8161 18.1804C13.4995 18.4968 13.1084 18.7283 12.6788 18.8538L8.84808 19.9738C8.73335 20.0072 8.61174 20.0092 8.49596 19.9796C8.38019 19.9499 8.27452 19.8897 8.19001 19.8052C8.10551 19.7207 8.04527 19.615 8.01561 19.4992C7.98595 19.3835 7.98795 19.2618 8.02142 19.1471L9.14142 15.3164C9.26745 14.8872 9.49946 14.4965 9.81608 14.1804L21.8334 2.16177Z" stroke="#17344D" stroke-width="2.66667" stroke-linecap="round" stroke-linejoin="round"/>
</svg>
