<svg width="24" height="24" viewBox="0 0 24 24" fill="none" xmlns="http://www.w3.org/2000/svg">
<path d="M2.66667 24C1.93333 24 1.30578 23.7391 0.784 23.2173C0.262222 22.6956 0.000888889 22.0676 0 21.3333V2.66667C0 1.93333 0.261333 1.30578 0.784 0.784C1.30667 0.262222 1.93422 0.000888889 2.66667 0H10.6667C11.0444 0 11.3613 0.128 11.6173 0.384C11.8733 0.64 12.0009 0.956445 12 1.33333C11.9991 1.71022 11.8711 2.02711 11.616 2.284C11.3609 2.54089 11.0444 2.66844 10.6667 2.66667H2.66667V21.3333H10.6667C11.0444 21.3333 11.3613 21.4613 11.6173 21.7173C11.8733 21.9733 12.0009 22.2898 12 22.6667C11.9991 23.0436 11.8711 23.3604 11.616 23.6173C11.3609 23.8742 11.0444 24.0018 10.6667 24H2.66667ZM18.9 13.3333H9.33333C8.95556 13.3333 8.63911 13.2053 8.384 12.9493C8.12889 12.6933 8.00089 12.3769 8 12C7.99911 11.6231 8.12711 11.3067 8.384 11.0507C8.64089 10.7947 8.95733 10.6667 9.33333 10.6667H18.9L16.4 8.16667C16.1556 7.92222 16.0333 7.62222 16.0333 7.26667C16.0333 6.91111 16.1556 6.6 16.4 6.33333C16.6444 6.06667 16.9556 5.92756 17.3333 5.916C17.7111 5.90444 18.0333 6.03244 18.3 6.3L23.0667 11.0667C23.3333 11.3333 23.4667 11.6444 23.4667 12C23.4667 12.3556 23.3333 12.6667 23.0667 12.9333L18.3 17.7C18.0333 17.9667 17.7169 18.0947 17.3507 18.084C16.9844 18.0733 16.6676 17.9342 16.4 17.6667C16.1556 17.4 16.0391 17.0836 16.0507 16.7173C16.0622 16.3511 16.1898 16.0453 16.4333 15.8L18.9 13.3333Z" fill="#17344D"/>
</svg>
