<svg width="27" height="27" viewBox="0 0 27 27" fill="none" xmlns="http://www.w3.org/2000/svg">
<path fill-rule="evenodd" clip-rule="evenodd" d="M13.3333 26.6667C5.96933 26.6667 0 20.6973 0 13.3333C0 5.96933 5.96933 0 13.3333 0C20.6973 0 26.6667 5.96933 26.6667 13.3333C26.6667 20.6973 20.6973 26.6667 13.3333 26.6667ZM13.3333 25.0667C16.4452 25.0667 19.4296 23.8305 21.6301 21.6301C23.8305 19.4296 25.0667 16.4452 25.0667 13.3333C25.0667 10.2215 23.8305 7.23704 21.6301 5.03661C19.4296 2.83619 16.4452 1.6 13.3333 1.6C10.2215 1.6 7.23704 2.83619 5.03661 5.03661C2.83619 7.23704 1.6 10.2215 1.6 13.3333C1.6 16.4452 2.83619 19.4296 5.03661 21.6301C7.23704 23.8305 10.2215 25.0667 13.3333 25.0667ZM11.7707 16.744L19.516 9L20.6467 10.132L12.7133 18.0653C12.4633 18.3153 12.1242 18.4557 11.7707 18.4557C11.4171 18.4557 11.078 18.3153 10.828 18.0653L6.66667 13.9013L7.79867 12.7693L11.772 16.7427L11.7707 16.744Z" fill="#17344D"/>
</svg>
