<svg width="32" height="32" viewBox="0 0 32 32" fill="none" xmlns="http://www.w3.org/2000/svg">
<g opacity="0.3">
<path d="M28 28L22.2094 22.2093M22.2094 22.2093C23.1999 21.2188 23.9856 20.0429 24.5217 18.7487C25.0577 17.4546 25.3336 16.0675 25.3336 14.6667C25.3336 13.2659 25.0577 11.8788 24.5217 10.5846C23.9856 9.29043 23.1999 8.11452 22.2094 7.124C21.2188 6.13348 20.0429 5.34776 18.7488 4.8117C17.4546 4.27563 16.0675 3.99973 14.6667 3.99973C13.2659 3.99973 11.8788 4.27563 10.5846 4.8117C9.29046 5.34776 8.11455 6.13348 7.12403 7.124C5.12359 9.12444 3.99976 11.8376 3.99976 14.6667C3.99976 17.4957 5.12359 20.2089 7.12403 22.2093C9.12447 24.2098 11.8376 25.3336 14.6667 25.3336C17.4957 25.3336 20.2089 24.2098 22.2094 22.2093Z" stroke="#AAAAAA" stroke-width="1.75" stroke-linecap="round" stroke-linejoin="round"/>
</g>
</svg>
