<svg width="18" height="15" viewBox="0 0 18 15" fill="none" xmlns="http://www.w3.org/2000/svg">
<path d="M1.68771 10.0402C0.979238 9.12003 0.625 8.65911 0.625 7.293C0.625 5.92606 0.979238 5.4668 1.68771 4.54578C3.10216 2.70875 5.4743 0.625 8.96 0.625C12.4457 0.625 14.8178 2.70875 16.2323 4.54578C16.9408 5.46764 17.295 5.92689 17.295 7.293C17.295 8.65994 16.9408 9.1192 16.2323 10.0402C14.8178 11.8772 12.4457 13.961 8.96 13.961C5.4743 13.961 3.10216 11.8772 1.68771 10.0402Z" stroke="#17344D" stroke-width="1.25025"/>
<path d="M11.4605 7.29298C11.4605 7.95615 11.197 8.59217 10.7281 9.0611C10.2592 9.53004 9.62315 9.79348 8.95997 9.79348C8.2968 9.79348 7.66079 9.53004 7.19185 9.0611C6.72292 8.59217 6.45947 7.95615 6.45947 7.29298C6.45947 6.62981 6.72292 5.99379 7.19185 5.52486C7.66079 5.05592 8.2968 4.79248 8.95997 4.79248C9.62315 4.79248 10.2592 5.05592 10.7281 5.52486C11.197 5.99379 11.4605 6.62981 11.4605 7.29298Z" stroke="#17344D" stroke-width="1.25025"/>
</svg>
